<svg xmlns="http://www.w3.org/2000/svg" viewBox="0 0 512 512">
  <rect width="512" height="512" rx="112" fill="#f8f2e8"/>
  <path d="M126 122c80-48 214-48 294 0" fill="none" stroke="#1f1d1b" stroke-width="8" stroke-linecap="round" opacity=".22"/>
  <path d="M145 240c-12-80 30-150 112-172 80-20 154 22 174 96-52-30-100-16-154 2-60 20-100 44-132 74Z" fill="rgba(31,29,27,.05)" stroke="#1f1d1b" stroke-width="10" stroke-linejoin="round"/>
  <path d="M160 238c28-72 72-126 132-158M210 212c42-60 94-96 156-106M276 186c40-24 82-32 126-20M172 284c-6 64 10 122 48 158 38 36 104 36 150-2 42-34 62-88 70-150" fill="none" stroke="#1f1d1b" stroke-width="9" stroke-linecap="round" stroke-linejoin="round"/>
  <path d="M166 282c-32 0-52 22-46 50 5 24 26 38 54 34M438 276c32-2 54 20 49 48-4 25-25 42-53 42" fill="none" stroke="#1f1d1b" stroke-width="9" stroke-linecap="round"/>
  <path d="M200 278c30-18 64-18 94-2M320 274c30-16 62-14 90 4M214 318c28-18 62-16 88 2M326 314c28-16 58-14 82 4" fill="none" stroke="#1f1d1b" stroke-width="8" stroke-linecap="round"/>
  <circle cx="256" cy="318" r="8" fill="#1f1d1b"/>
  <circle cx="368" cy="316" r="8" fill="#1f1d1b"/>
  <path d="M316 322c-16 42-30 78-48 114 22 10 42 8 62-4M250 460c34 20 78 14 110-20" fill="none" stroke="#1f1d1b" stroke-width="8" stroke-linecap="round" stroke-linejoin="round"/>
</svg>
